<svg width="24" height="16" viewBox="0 0 24 16" fill="none" xmlns="http://www.w3.org/2000/svg">
<path fill-rule="evenodd" clip-rule="evenodd" d="M2.65548 3.41882H2.95115V12.5812H2.65548V3.41882ZM3.37983 3.41882H4.33159V7.46601H3.37983V3.41882ZM4.92817 3.41882H4.63249V7.46601H4.92817V3.41882ZM11.7147 3.41882H11.9422V7.46601H11.7147V3.41882ZM12.8449 3.41882H12.3166V7.46601H12.8449V3.41882ZM14.7345 3.41882H14.2061V7.46601H14.7345V3.41882ZM15.1527 3.41882H14.857V7.46601H15.1527V3.41882ZM15.5446 3.41882H15.8403V7.46601H15.5446V3.41882ZM15.968 3.41882H16.1954V7.46601H15.968V3.41882ZM14.0049 3.41882H13.7775V7.46601H14.0049V3.41882ZM16.3966 3.41882H16.9249V7.46601H16.3966V3.41882ZM20.7373 3.41882H20.4416V7.46601H20.7373V3.41882ZM21.0924 3.41882H20.865V7.46601H21.0924V3.41882ZM19.4041 3.41882H19.9325V7.46601H19.4041V3.41882ZM19.1487 3.41882H18.853V7.46601H19.1487V3.41882ZM17.0474 3.41882H17.3431V7.46601H17.0474V3.41882ZM18.5521 3.41882H17.6003V7.46601H18.5521V3.41882ZM13.3524 3.41882H13.648V7.46601H13.3524V3.41882ZM5.71195 3.41882H5.18358V7.46601H5.71195V3.41882ZM2.53301 3.41882H2.00464V12.5812H2.53301V3.41882ZM21.4668 3.41882H21.9952V12.5812H21.4668V3.41882ZM6.51678 3.41882H6.2211V7.46601H6.51678V3.41882ZM7.72572 3.41882H8.0214V7.46601H7.72572V3.41882ZM9.40011 3.41882H8.44835V7.46601H9.40011V3.41882ZM6.64449 3.41882H6.87193V7.46601H6.64449V3.41882ZM10.7822 3.41882H10.2538V7.46601H10.7822V3.41882ZM9.70101 3.41882H9.99669V7.46601H9.70101V3.41882ZM7.60326 3.41882H7.07489V7.46601H7.60326V3.41882ZM11.2913 3.41882H11.587V7.46601H11.2913V3.41882ZM3.427 12.4049V7.75903H5.12409C5.40745 7.74811 5.69006 7.7958 5.95514 7.89927C6.15791 7.98937 6.32889 8.14124 6.44501 8.33437C6.55919 8.51733 6.61991 8.73011 6.61997 8.94747C6.61918 9.1456 6.56531 9.33969 6.46426 9.50844C6.34852 9.69318 6.1841 9.84032 5.99013 9.93275C6.23976 9.99817 6.46125 10.1468 6.61997 10.3553C6.76968 10.5568 6.84806 10.8048 6.84217 11.0583C6.84348 11.2688 6.79737 11.4768 6.70745 11.666C6.6312 11.8352 6.51733 11.9836 6.37503 12.0993C6.22624 12.207 6.05878 12.2845 5.88166 12.3276C5.64187 12.384 5.39626 12.4099 5.15033 12.4049H3.427ZM4.02886 9.70801H5.00162C5.1932 9.71501 5.38486 9.69689 5.57198 9.65407C5.7108 9.61863 5.83402 9.53632 5.92189 9.42033C6.00229 9.30136 6.04282 9.15874 6.03736 9.014C6.04008 8.87007 6.00242 8.72838 5.92889 8.60586C5.8582 8.48971 5.74872 8.40405 5.62096 8.36494C5.39586 8.31023 5.16447 8.28784 4.93338 8.29841H4.02886V9.70801ZM5.15383 11.8548H4.02886V10.2528H5.0786C5.30158 10.2442 5.52453 10.2702 5.73993 10.3301C5.88555 10.3761 6.01188 10.4711 6.0986 10.5998C6.1872 10.7331 6.23307 10.8915 6.22982 11.0529C6.23268 11.1897 6.20199 11.3251 6.14059 11.4466C6.0877 11.5522 6.00864 11.6415 5.9114 11.7055C5.80378 11.7707 5.68499 11.814 5.56148 11.8332C5.42633 11.851 5.29005 11.8582 5.15383 11.8548ZM7.89022 9.33766C7.55314 9.63732 7.3846 10.0982 7.3846 10.7203V10.7257C7.3846 11.2926 7.52631 11.7271 7.80974 12.0292C7.95405 12.1799 8.12744 12.2979 8.31878 12.3756C8.51011 12.4533 8.71516 12.4891 8.92072 12.4805C9.19705 12.4828 9.46933 12.4122 9.71152 12.2755C9.94729 12.1435 10.1397 11.9427 10.2644 11.6984C10.4048 11.378 10.4695 11.0281 10.4533 10.6771C10.4667 10.4486 10.4356 10.2197 10.3621 10.0036C10.2885 9.78753 10.1738 9.58866 10.0247 9.41857C9.88148 9.26829 9.70931 9.15037 9.51921 9.07235C9.32912 8.99434 9.12529 8.95794 8.92072 8.96549C8.54438 8.95511 8.17751 9.08761 7.89022 9.33766ZM8.22789 11.6876C8.02481 11.4103 7.92715 11.0663 7.95321 10.7203C7.92769 10.3754 8.02535 10.0328 8.22789 9.75658C8.31411 9.65332 8.42169 9.57116 8.54277 9.5161C8.66385 9.46104 8.79537 9.43447 8.92772 9.43835C9.05845 9.43578 9.18807 9.46335 9.30706 9.51905C9.42605 9.57474 9.53138 9.65714 9.6153 9.76018C9.81705 10.0286 9.91546 10.364 9.89173 10.7023C9.89173 11.1422 9.80017 11.47 9.61705 11.6858C9.53295 11.7891 9.42734 11.8716 9.30802 11.9273C9.18871 11.983 9.05874 12.0105 8.92772 12.0076C8.79518 12.0117 8.66345 11.985 8.5423 11.9296C8.42115 11.8742 8.31369 11.7915 8.22789 11.6876ZM11.092 12.4049V7.75902H11.6483V12.4049H11.092ZM14.755 11.3152L14.7432 11.3136H14.7555L14.755 11.3152ZM14.4056 11.8422C14.5711 11.7067 14.6929 11.523 14.755 11.3152L15.3171 11.3909C15.2434 11.7082 15.0669 11.9904 14.8167 12.191C14.5437 12.3891 14.2146 12.489 13.8807 12.4751C13.6709 12.486 13.4612 12.4511 13.2655 12.3727C13.0698 12.2943 12.8925 12.1742 12.7452 12.0202C12.4653 11.72 12.3253 11.301 12.3253 10.7473C12.3253 10.1935 12.4653 9.74402 12.7487 9.43297C12.8891 9.27848 13.0602 9.1568 13.2504 9.07615C13.4406 8.9955 13.6454 8.95776 13.8509 8.9655C14.0507 8.95838 14.2497 8.99565 14.4341 9.07478C14.6186 9.1539 14.7843 9.27302 14.9199 9.42398C15.1975 9.72963 15.3363 10.1599 15.3363 10.7149V10.8659H12.8922C12.8912 11.1775 13 11.4789 13.1983 11.7146C13.2858 11.8098 13.3917 11.8851 13.5092 11.9356C13.6268 11.9861 13.7533 12.0106 13.8807 12.0076C14.0688 12.0148 14.2537 11.9565 14.4056 11.8422ZM14.7485 10.3985H12.9237C12.9302 10.1351 13.0333 9.88401 13.2123 9.69547C13.2961 9.6091 13.396 9.54113 13.5061 9.49569C13.6162 9.45025 13.7341 9.4283 13.8527 9.43117C13.9844 9.42794 14.115 9.45613 14.2343 9.51353C14.3536 9.57094 14.4583 9.65598 14.5403 9.76199C14.6704 9.94781 14.7429 10.1696 14.7485 10.3985ZM17.2259 11.8944L17.3011 12.3978C17.1638 12.43 17.0237 12.4475 16.883 12.45C16.7215 12.4592 16.5605 12.4252 16.4158 12.3511C16.3116 12.2943 16.229 12.2031 16.1814 12.0922C16.123 11.8728 16.1006 11.6449 16.1149 11.4179V9.47794H15.7037V9.03565H16.1149V8.2032L16.6695 7.85979V9.03565H17.2259V9.47794H16.6695V11.4557C16.6622 11.5615 16.6723 11.6679 16.6993 11.7703C16.7187 11.8167 16.7517 11.8556 16.7937 11.8818C16.8521 11.9125 16.9172 11.9268 16.9827 11.9232C17.0641 11.9207 17.1454 11.9129 17.2259 11.8998V11.8944ZM18.071 9.33766C17.7339 9.63732 17.5654 10.0982 17.5654 10.7203V10.7257C17.5665 11.2926 17.7077 11.7271 17.9887 12.0292C18.1335 12.1798 18.3072 12.2976 18.4988 12.3753C18.6904 12.4531 18.8957 12.4889 19.1015 12.4805C19.3778 12.4828 19.6501 12.4122 19.8923 12.2755C20.1277 12.143 20.3199 11.9423 20.4452 11.6984C20.5856 11.378 20.6503 11.0281 20.6341 10.6771C20.6474 10.4486 20.6164 10.2197 20.5428 10.0036C20.4692 9.78753 20.3546 9.58866 20.2055 9.41857C20.0622 9.26829 19.8901 9.15037 19.7 9.07235C19.5099 8.99434 19.306 8.95794 19.1015 8.96549C18.7251 8.95511 18.3583 9.08761 18.071 9.33766ZM18.4087 11.6876C18.2056 11.4103 18.1079 11.0663 18.134 10.7203C18.1085 10.3754 18.2061 10.0328 18.4087 9.75658C18.4949 9.65332 18.6024 9.57116 18.7235 9.5161C18.8446 9.46104 18.9761 9.43447 19.1085 9.43835C19.2392 9.43578 19.3688 9.46335 19.4878 9.51905C19.6068 9.57474 19.7121 9.65714 19.7961 9.76018C19.9978 10.0286 20.0962 10.364 20.0725 10.7023C20.0737 11.1422 19.9821 11.47 19.7978 11.6858C19.7137 11.7891 19.6081 11.8716 19.4888 11.9273C19.3695 11.983 19.2395 12.0105 19.1085 12.0076C18.9759 12.0117 18.8442 11.985 18.7231 11.9296C18.6019 11.8742 18.4945 11.7915 18.4087 11.6876Z" fill="#7C7C7C"/>
</svg>
